<svg xmlns="http://www.w3.org/2000/svg" width="145.56mm" height="41.09mm" viewBox="0 0 145.56001 41.090001"><defs><clipPath id="a" clipPathUnits="userSpaceOnUse"><path d="M0 595.28h841.89V0H0Z"/></clipPath><clipPath id="b" clipPathUnits="userSpaceOnUse"><path d="M222.786 467.221c-1.206-5.534-.642-53.095-.211-58.6.303-4.047 2.007-6.408 6.748-6.311 33.071.532 41.743 40.616 21.316 59.477-3.27 3.014-7.254 5.491-12.052 7.177-2.408.849-6.382 2.088-9.772 2.088-2.911 0-5.396-.927-6.029-3.831"/></clipPath><clipPath id="d" clipPathUnits="userSpaceOnUse"><path d="M263.213 504.905c-1.086-5.009-.57-48.196-.191-53.207.287-3.656 1.825-5.797 6.129-5.734 30.032.501 37.918 36.895 19.374 54.018-2.969 2.734-6.618 4.985-10.937 6.509-2.198.786-5.799 1.904-8.878 1.904-2.662 0-4.912-.86-5.497-3.49"/></clipPath><clipPath id="f" clipPathUnits="userSpaceOnUse"><path d="M269.975 466.034c-1.394-6.306-.724-60.558-.235-66.852.368-4.623 2.279-7.29 7.685-7.209 37.741.599 47.668 46.343 24.363 67.869-3.725 3.436-8.322 6.27-13.748 8.18-2.772.987-7.306 2.389-11.156 2.389-3.337 0-6.187-1.058-6.909-4.377"/></clipPath><linearGradient id="c" x1="0" x2="1" y1="0" y2="0" gradientTransform="rotate(179.453 129.876 218.807) scale(40.88661)" gradientUnits="userSpaceOnUse" spreadMethod="pad"><stop offset="0" style="stop-opacity:1;stop-color:#e70"/><stop offset="0.0996612" style="stop-opacity:1;stop-color:#e70"/><stop offset="0.44032139" style="stop-opacity:1;stop-color:#e70"/><stop offset="0.999661" style="stop-opacity:1;stop-color:#c8171e"/><stop offset="1" style="stop-opacity:1;stop-color:#c8171e"/></linearGradient><linearGradient id="e" x1="0" x2="1" y1="0" y2="0" gradientTransform="scale(36.61634) rotate(-.546 1370.882 -745.993)" gradientUnits="userSpaceOnUse" spreadMethod="pad"><stop offset="0" style="stop-opacity:1;stop-color:#22aee6"/><stop offset="0.05557917" style="stop-opacity:1;stop-color:#22aee6"/><stop offset="1" style="stop-opacity:1;stop-color:#0054a7"/></linearGradient><linearGradient id="g" x1="0" x2="1" y1="0" y2="0" gradientTransform="rotate(-.546 45372.524 -27612.73) scale(54.0862)" gradientUnits="userSpaceOnUse" spreadMethod="pad"><stop offset="0" style="stop-opacity:1;stop-color:#8ec31f"/><stop offset="0.37851141" style="stop-opacity:1;stop-color:#8ec31f"/><stop offset="1" style="stop-opacity:1;stop-color:#008e51"/></linearGradient></defs><g clip-path="url(#a)" transform="matrix(.35278 0 0 -.35278 -78.338 179.35)"><path d="M0 0h-18.616v7.565h-8.318v-.586c0-1.282.522-2.146 1.571-2.621V0h-18.674c-.819 0-1.504-.281-2.065-.845-.564-.563-.846-1.25-.846-2.064 0-.853.282-1.562.846-2.127.561-.562 1.246-.84 2.065-.84H0c.814 0 1.499.278 2.064.84.56.565.842 1.274.842 2.127 0 .814-.282 1.501-.842 2.064C1.499-.281.814 0 0 0" style="fill:#007f41;fill-opacity:1;fill-rule:nonzero;stroke:none" transform="translate(473.408 442.286)"/><path d="M0 0h-25.133c-1.159 0-1.743.578-1.743 1.744v6.401h-8.494v-.582c0-1.283.541-2.132 1.628-2.56V.169c0-3.996 2.231-5.989 6.683-5.989H0c.776 0 1.456.278 2.064.846.598.558.9 1.246.9 2.068 0 .774-.302 1.449-.9 2.031C1.456-.293.776 0 0 0" style="fill:#007f41;fill-opacity:1;fill-rule:nonzero;stroke:none" transform="translate(467.768 424.835)"/><path d="M0 0a5.197 5.197 0 0 1 1.69.171c2.438.737 4.525 1.59 6.249 2.562 1.728.971 3.271 1.96 4.625 2.964 2.639 1.827 4.775 3.982 6.403 6.458 1.628-2.476 3.763-4.631 6.396-6.458 1.361-1.004 2.911-1.993 4.65-2.964 1.753-.972 3.826-1.825 6.229-2.562A5.17 5.17 0 0 1 37.923 0c1.015.076 1.748.581 2.217 1.51.431.89.431 1.771 0 2.626-.388.649-1.048 1.136-1.978 1.447-2.37.736-4.429 1.632-6.195 2.676-1.763 1.047-3.266 2.136-4.511 3.262-3.371 3.02-5.095 6.609-5.172 10.757v.698h-8.379v-.637c0-.467.076-.873.23-1.224.158-.35.465-.76.933-1.215 0-2.602-1.55-5.394-4.654-8.379-1.244-1.126-2.715-2.215-4.419-3.262-1.71-1.044-3.783-1.94-6.224-2.676-.93-.311-1.595-.798-1.983-1.447-.427-.855-.427-1.736 0-2.626C-1.748.581-1.006.076 0 0" style="fill:#007f41;fill-opacity:1;fill-rule:nonzero;stroke:none" transform="translate(432.57 446.242)"/><path d="M0 0h-4.362v14.482h-7.973v-.636c0-1.243.546-2.096 1.633-2.565v-44.442c0-.852.311-1.592.929-2.213.618-.618 1.375-.929 2.269-.929.853 0 1.595.311 2.208.929.622.621.934 1.361.934 2.213v27.172H0v-27.11c0-.859.32-1.604.962-2.245.637-.636 1.384-.959 2.236-.959.896 0 1.656.323 2.298.959.638.641.963 1.386.963 2.245v47.581H0Z" style="fill:#007f41;fill-opacity:1;fill-rule:nonzero;stroke:none" transform="translate(523.437 454.735)"/><path d="M0 0c-.393-1.015-.915-1.883-1.575-2.619a7.37 7.37 0 0 0-2.419-1.803 6.548 6.548 0 0 0-2.816-.636c-1.047 0-2.03.209-2.944.636a6.835 6.835 0 0 0-2.351 1.803A7.986 7.986 0 0 0-13.647 0a9.22 9.22 0 0 0-.555 3.197c0 1.124.186 2.189.555 3.199a8.07 8.07 0 0 0 1.542 2.617 6.952 6.952 0 0 0 2.351 1.809 6.929 6.929 0 0 0 2.944.634c.968 0 1.907-.211 2.816-.634a7.5 7.5 0 0 0 2.419-1.809C-.915 8.275-.393 7.404 0 6.396a8.943 8.943 0 0 0 .579-3.199A8.92 8.92 0 0 0 0 0m5.233 17.624h-8.437v5H-10.3v-5h-8.839c-.862 0-1.556-.281-2.097-.842a2.783 2.783 0 0 1-.82-2.009c0-.773.274-1.444.82-2.004.541-.565 1.235-.843 2.097-.843h1.963a14.731 14.731 0 0 1-2.317-3.58 12.596 12.596 0 0 1-1.164-5.322c0-1.901.369-3.686 1.106-5.357a14.518 14.518 0 0 1 3.022-4.417 13.543 13.543 0 0 1 4.309-2.969c1.666-.733 3.472-1.104 5.41-1.104 1.897 0 3.673.371 5.326 1.104A14.332 14.332 0 0 1 2.844-6.75a14.03 14.03 0 0 1 2.997 4.417C6.56-.662 6.914 1.123 6.914 3.024c0 1.86-.374 3.634-1.13 5.322a14.237 14.237 0 0 1-2.289 3.58h1.738c.771 0 1.455.278 2.036.843.579.56.871 1.231.871 2.004 0 .774-.292 1.451-.871 2.009-.581.561-1.265.842-2.036.842" style="fill:#007f41;fill-opacity:1;fill-rule:nonzero;stroke:none" transform="translate(501.976 446.941)"/><path d="M0 0c-1.169 0-1.748.596-1.748 1.802v6.459H20.12V1.802C20.12.596 19.54 0 18.377 0Zm31.171-14.076H12.563v8.321h7.796c4.381 0 6.575 1.975 6.575 5.932v22.097h-8.323v-.572c0-1.281.508-2.138 1.509-2.564v-5.004H-1.748v8.14h-8.38v-.572c0-1.281.527-2.138 1.571-2.564V.177c0-3.957 2.174-5.932 6.512-5.932h7.862v-8.321h-18.674c-.814 0-1.508-.268-2.064-.815-.569-.544-.848-1.241-.848-2.094 0-.811.279-1.501.848-2.068.556-.561 1.25-.842 2.064-.842h44.028c.824 0 1.509.281 2.068.842.566.567.848 1.257.848 2.068 0 .853-.282 1.55-.848 2.094-.559.547-1.244.815-2.068.815" style="fill:#007f41;fill-opacity:1;fill-rule:nonzero;stroke:none" transform="translate(552.77 445.25)"/><path d="M0 0c-1.264-1.293-2.882-1.942-4.859-1.942-2.022 0-3.668.649-4.943 1.942-1.283 1.307-1.925 2.867-1.925 4.691 0 1.821.642 3.371 1.925 4.657 1.275 1.276 2.921 1.916 4.943 1.916 1.977 0 3.595-.64 4.859-1.916 1.255-1.286 1.892-2.836 1.892-4.657C1.892 2.867 1.255 1.307 0 0m15.85 21.731v-.636c0-1.243.521-2.095 1.57-2.565V8.295H7.944c-.11.286-.22.573-.354.843-.579 1.182-1.422 2.273-2.481 3.285h3.822c.732 0 1.364.268 1.89.79a2.58 2.58 0 0 1 .786 1.89c0 .699-.263 1.328-.786 1.888-.526.565-1.158.844-1.89.844H-1.077v4.711h-7.45v-4.711H-18.53c-.699 0-1.322-.279-1.863-.844-.545-.56-.814-1.189-.814-1.888 0-.737.269-1.366.814-1.89.541-.522 1.164-.79 1.863-.79h3.643c-1.062-1.012-1.91-2.103-2.513-3.285-.675-1.337-1.015-2.838-1.015-4.506 0-1.677.34-3.236 1.015-4.684.684-1.458 1.662-2.749 2.94-3.869 1.201-1.088 2.628-1.936 4.275-2.564 1.648-.621 3.424-.93 5.326-.93 1.857 0 3.605.309 5.233.93 1.633.628 3.064 1.476 4.309 2.564C5.962-2.801 6.929-1.51 7.59-.052c.411.916.684 1.874.838 2.874h8.992v-7.441c0-.926.33-1.728.991-2.389.656-.656 1.451-.983 2.385-.983.929 0 1.724.327 2.385.983.655.661.986 1.463.986 2.389v26.35z" style="fill:#007f41;fill-opacity:1;fill-rule:nonzero;stroke:none" transform="translate(610.443 447.486)"/><path d="M0 0h21.054v-5.762c0-1.163-.618-1.742-1.859-1.742H1.857C.617-7.504 0-6.925 0-5.762Zm-8.327 4.888c0-1.281.526-2.135 1.575-2.562v-9.368c0-3.996 2.189-5.989 6.569-5.989H21.23c4.339 0 6.513 1.993 6.513 5.989V5.467h-36.07z" style="fill:#007f41;fill-opacity:1;fill-rule:nonzero;stroke:none" transform="translate(606.867 432.046)"/><path d="M0 0c0-11.016-7.312-18.13-18.301-18.13h-9.662v36.329h9.662C-6.981 18.199 0 11.355 0 0m-18.052 26.228h-19.162v-52.389h19.167c15.82 0 27.298 10.977 27.298 26.099 0 15.724-10.975 26.297-27.303 26.29" style="fill:#007f41;fill-opacity:1;fill-rule:nonzero;stroke:none" transform="translate(365.467 443.77)"/><path d="M0 0c-1.7-.409-2.72-1.445-2.988-3.033-.206-1.213.072-2.494.733-3.419.531-.733 1.269-1.21 2.126-1.343 1.197-.203 2.519-.263 3.912-.322 4.123-.186 8.489-.369 10.438-4.022 1.154-2.178.982-4.999-.43-7.037-1.457-2.11-4.32-3.386-8.514-3.634a29.248 29.248 0 0 0-1.691-.047H-8.078l-.005 36.329H2.49c6.962 0 9.773-2.004 9.773-6.254.005-2.332-.886-4.483-2.648-5.75C8.03.318 5.727.289 3.505.266 2.514.253 1.102.233 0 0m15.849-3.778c3.419 2.326 5.67 6.964 5.67 11.837 0 8.421-6.757 13.449-18.071 13.441h-20.777v-52.388H3.816c12.785 0 20.413 5.602 20.413 14.965 0 5.607-2.744 9.587-8.38 12.145" style="fill:#007f41;fill-opacity:1;fill-rule:nonzero;stroke:none" transform="translate(396.198 448.497)"/></g><g clip-path="url(#b)" transform="matrix(.35278 0 0 -.35278 -78.338 179.35)"><path d="M222.786 467.221c-1.206-5.534-.642-53.095-.211-58.6.303-4.047 2.007-6.408 6.748-6.311 33.071.532 41.743 40.616 21.316 59.477-3.27 3.014-7.254 5.491-12.052 7.177-2.408.849-6.382 2.088-9.772 2.088-2.911 0-5.396-.927-6.029-3.831" style="fill:url(#c);stroke:none"/></g><g clip-path="url(#d)" transform="matrix(.35278 0 0 -.35278 -78.338 179.35)"><path d="M263.213 504.905c-1.086-5.009-.57-48.196-.191-53.207.287-3.656 1.825-5.797 6.129-5.734 30.032.501 37.918 36.895 19.374 54.018-2.969 2.734-6.618 4.985-10.937 6.509-2.198.786-5.799 1.904-8.878 1.904-2.662 0-4.912-.86-5.497-3.49" style="fill:url(#e);stroke:none"/></g><g clip-path="url(#f)" transform="matrix(.35278 0 0 -.35278 -78.338 179.35)"><path d="M269.975 466.034c-1.394-6.306-.724-60.558-.235-66.852.368-4.623 2.279-7.29 7.685-7.209 37.741.599 47.668 46.343 24.363 67.869-3.725 3.436-8.322 6.27-13.748 8.18-2.772.987-7.306 2.389-11.156 2.389-3.337 0-6.187-1.058-6.909-4.377" style="fill:url(#g);stroke:none"/></g></svg>