<svg xmlns="http://www.w3.org/2000/svg" xml:space="preserve" width="200.00037" height="66.557228" viewBox="0 0 200.00037 66.557229"><defs><clipPath id="a" clipPathUnits="userSpaceOnUse"><path d="M0 200h200V0H0Z"/></clipPath></defs><g clip-path="url(#a)" transform="matrix(1.33333 0 0 -1.33333 -33.333 166.612)"><path d="M0 0c-.824 8.045-9.986 14.638-20.465 14.725-10.478.087-18.32-6.367-17.481-14.413.816-8.056 9.98-14.636 20.459-14.73C-7.008-14.506.823-8.052 0 0m-34.666 2.018c-.713 6.484 6.09 11.689 15.19 11.621 9.106-.069 17.068-5.39 17.78-11.879C-.98-4.73-7.78-9.924-16.887-9.862c-9.104.063-17.064 5.387-17.779 11.88" style="fill:#f2ad80;fill-opacity:1;fill-rule:nonzero;stroke:none" transform="translate(79.991 97.361)"/><path d="M0 0c-6-6.267-6.094-15.915-.217-21.543 5.871-5.619 15.5-5.1 21.502 1.165 6 6.254 6.1 15.907.222 21.536C15.633 6.787 6.004 6.27 0 0m19.126-17.707c-5.164-5.387-13.451-5.836-18.505-.984-5.066 4.834-4.976 13.129.191 18.52C5.977 5.225 14.26 5.67 19.318.826c5.054-4.842 4.967-13.139-.192-18.533" style="fill:#eb7b3e;fill-opacity:1;fill-rule:nonzero;stroke:none" transform="translate(45.047 100.48)"/><path d="M0 0c-11.142-8.822-13.976-21.601-6.335-28.539 7.638-6.94 22.861-5.443 33.998 3.391C38.802-16.33 41.64-3.551 33.997 3.391 26.358 10.332 11.135 8.813 0 0m9.968 3.449c10.734 4.028 21.351-.045 23.707-9.087 2.362-9.047-4.426-19.635-15.162-23.654-10.738-4.047-21.351.051-23.709 9.083C-7.559-11.165-.77-.571 9.968 3.449" style="fill:#e75514;fill-opacity:1;fill-rule:nonzero;stroke:none" transform="translate(35.627 117.213)"/><path d="M0 0v-2.609h-2.778v-1.937H0v-1.193h-2.778v-1.948H0v-2.995h2.893V0Z" style="fill:#231815;fill-opacity:1;fill-rule:nonzero;stroke:none" transform="translate(172.107 110.038)"/><path d="M0 0h5.832v-5.798H1.185c-.969 0-1.192.825-1.185 1.247zm7.076 2.049H-2.76v-6.632c-.007-.333.22-3.26 3.721-3.26h7.643L8.603.687c.006.327-.003 1.362-1.527 1.362" style="fill:#231815;fill-opacity:1;fill-rule:nonzero;stroke:none" transform="translate(159.88 107.792)"/><path d="M0 0c-1.889 0-3.425 1.334-3.425 3.16 0 1.832 1.536 3.163 3.425 3.163 1.896 0 3.43-1.331 3.43-3.163C3.43 1.334 1.896 0 0 0m.01 8.327c-3.42 0-6.194-2.317-6.194-5.181C-6.184.292-3.41-2.039.01-2.039c3.421 0 6.194 2.331 6.194 5.185 0 2.864-2.773 5.181-6.194 5.181" style="fill:#231815;fill-opacity:1;fill-rule:nonzero;stroke:none" transform="translate(146.629 90.919)"/><path d="M0 0v-3.976h-1.389V0h-2.328v-10.475h2.328v4.379H0v-4.379h2.33V0Z" style="fill:#231815;fill-opacity:1;fill-rule:nonzero;stroke:none" transform="translate(150.503 110.038)"/><path d="M0 0c-.08.244-.194.511-.225.793-.192 1.391 0 3.745 0 3.745h-2.908s.151-2.616-.017-3.616A6.975 6.975 0 0 0-3.382 0c-.463-1.415-2.043-3.582-4.205-3.69v-2.029c3.717.032 5.608 2.776 5.893 3.412.288-.636 2.175-3.397 5.891-3.429v2.046C2.035-3.582.456-1.415 0 0" style="fill:#231815;fill-opacity:1;fill-rule:nonzero;stroke:none" transform="translate(141.393 105.307)"/><path d="M0 0c-1.892 0-3.429 1.334-3.429 3.16 0 1.832 1.537 3.163 3.429 3.163 1.895 0 3.427-1.331 3.427-3.163C3.427 1.334 1.895 0 0 0m.007 8.327c-3.418 0-6.193-2.317-6.193-5.181 0-2.854 2.775-5.185 6.193-5.185C3.429-2.039 6.2.292 6.2 3.146 6.2 6.01 3.429 8.327.007 8.327" style="fill:#231815;fill-opacity:1;fill-rule:nonzero;stroke:none" transform="translate(168.8 90.919)"/><path d="M0 0v2.21h-2.957v4.778h-2.889V-7.116h2.889V0z" style="fill:#231815;fill-opacity:1;fill-rule:nonzero;stroke:none" transform="translate(109.332 103.047)"/><path d="M0 0h-10.852c-.62.002-1.054.214-1.382.59-.421.471-.473 1.078-.467 1.818v2.115h-2.895V1.28c-.003-.869.212-3.468 3.893-3.484H0Z" style="fill:#231815;fill-opacity:1;fill-rule:nonzero;stroke:none" transform="translate(106.375 91.833)"/><path d="M97.499 109.094h-6.595v1.88h6.595z" style="fill:#231815;fill-opacity:1;fill-rule:nonzero;stroke:none"/><path d="M0 0c-1.527.005-2.735 1.121-2.73 2.496.007 1.378 1.226 2.347 2.752 2.343 1.522-.005 2.751-.987 2.746-2.36C2.76 1.102 1.519-.005 0 0m.017 6.632c-3.25 0-5.488-1.888-5.488-4.218 0-2.041 2.227-4.211 5.488-4.211 3.326 0 5.491 2.229 5.491 4.211 0 2.33-2.132 4.218-5.491 4.218" style="fill:#231815;fill-opacity:1;fill-rule:nonzero;stroke:none" transform="translate(94.246 99.352)"/><path d="M0 0h-12.842v-1.812H0Z" style="fill:#231815;fill-opacity:1;fill-rule:nonzero;stroke:none" transform="translate(100.696 108.44)"/><path d="M0 0h-2.949v7.153H-5.86V-5.583c0-1.385-.611-2.284-1.188-2.697-1.042-.708-3.199-.708-3.199-.708h-3.309v3.482h-2.876v-3.482h-5.214v-2.251h11.506c.071 0 3.162 0 4.204 1.199.04.038.076.075.109.112v-4.117h2.878v11.722H0Z" style="fill:#231815;fill-opacity:1;fill-rule:evenodd;stroke:none" transform="translate(132.145 102.977)"/><path d="M113.666 109.174h6.615v1.907h-6.615zM110.607 106.59h12.908v1.872h-12.908z" style="fill:#231815;fill-opacity:1;fill-rule:nonzero;stroke:none"/><path d="M0 0c-3.237 0-5.465-1.947-5.465-4.382 0-2.134 2.228-4.421 5.465-4.421v1.875c-1.511.038-2.769 1.199-2.733 2.622 0 1.425 1.222 2.435 2.733 2.435zm.035 0H0v-1.871h.035c1.511 0 2.734-1.01 2.734-2.435 0-1.46-1.223-2.584-2.769-2.622v-1.875h.035c3.309 0 5.501 2.363 5.501 4.421C5.536-1.947 3.379 0 .035 0" style="fill:#231815;fill-opacity:1;fill-rule:evenodd;stroke:none" transform="translate(117.009 105.894)"/></g></svg>