<svg xmlns="http://www.w3.org/2000/svg" xml:space="preserve" width="931.62427" height="200" viewBox="0 0 931.62426 200"><defs><linearGradient id="a" x1="0" x2="1" y1="0" y2="0" gradientTransform="matrix(0 215.59639 215.59639 0 -189.863 271.15)" gradientUnits="userSpaceOnUse" spreadMethod="pad"><stop offset="0" style="stop-opacity:1;stop-color:#244ba6"/><stop offset="0.229996" style="stop-opacity:1;stop-color:#244ba6"/><stop offset="0.89412462" style="stop-opacity:1;stop-color:#00adef"/><stop offset="1" style="stop-opacity:1;stop-color:#00adef"/></linearGradient></defs><path d="M-246.05 372.238c0-62.142 50.315-112.516 112.377-112.516l-.006 59.426c-9.964 13.524-16.067 31.498-16.067 51.221 0 13.033 2.652 25.3 7.326 36.027h.008c5.259 11.37 5.939 29.2 5.939 48.168l.006 30.155c-60.773-1.482-109.584-51.277-109.584-112.48" style="fill:url(#a);stroke:none;stroke-width:2.78541" transform="matrix(.8889 0 0 -.8889 218.713 430.864)"/><path d="M-130.89 484.72c60.773-1.484 109.584-51.279 109.584-112.483 0-62.14-50.3-112.516-112.367-112.516-13.15 18.586-18.204 39.363-.006 59.427 9.963 13.523 16.067 31.5 16.067 51.22 0 13.033-2.652 25.303-7.326 36.027h-.006c-5.258 11.373-5.938 29.2-5.938 48.168z" style="fill:#244ba6;fill-opacity:1;fill-rule:nonzero;stroke:none;stroke-width:2.78541" transform="matrix(.8889 0 0 -.8889 218.713 430.864)"/><path d="M61.382 324.464h6.206l-6.521-13.336 7.044-16.944h-6.495l-6.231 16.103h-.053v-16.103h-5.237v30.28h5.237V311.17h.053zM95.678 319.222c-3.562 0-4.295-5.283-4.295-10.024 0-4.488.733-9.771 4.295-9.771 3.56 0 4.295 5.283 4.295 9.77 0 4.742-.735 10.025-4.295 10.025m-9.793-9.899c0 9.983 3.535 15.771 9.793 15.771 6.26 0 9.794-5.788 9.794-15.77 0-9.984-3.535-15.772-9.794-15.772-6.258 0-9.793 5.788-9.793 15.771M133.698 311.63c1.676 0 3.3.377 3.3 3.482 0 3.103-1.624 3.482-3.3 3.482h-2.042v-6.963zm-2.042-17.447h-5.24v30.28h8.747c3.195 0 7.334-1.382 7.334-7.8 0-4.528-2.173-6.921-4.82-7.422v-.167c3.352-.129 3.981-2.856 4.321-7.552.131-2.518.42-4.908.866-7.34h-5.685c-.287 2.095-.445 4.276-.576 6.416-.21 3.651-.312 5.16-2.983 5.16h-1.964zM163.578 294.184v30.28h14.404v-5.869h-9.167v-6.25h8.434v-5.872h-8.434v-6.42h9.167v-5.87zM210.507 305.967l-2.41 12.585h-.077l-2.565-12.585zm-12.857-11.782 7.462 30.28h6.39l7.465-30.28h-5.92l-1.256 5.913h-7.673l-1.232-5.913zM273.393 305.505h-3.85v5.874h9.086V295.19c-4.242-1.005-5.052-1.637-9.61-1.637-5.89.292-9.478 6.292-9.478 15.77 0 9.477 3.587 15.48 9.479 15.772 4.582.206 9.4-.88 9.478-9.688h-5.236c-.262 2.933-1.702 3.816-3.43 3.816-3.537 0-4.793-4.991-4.793-9.9 0-5.957 1.858-9.899 5.63-9.899.969 0 1.938.254 2.724.504zM311.595 305.967l-2.409 12.585h-.078l-2.565-12.585zm-12.854-11.782 7.46 30.28h6.389l7.465-30.28h-5.92l-1.255 5.913h-7.674l-1.229-5.913zM350.325 315.575c.025 1.173-.212 2.053-.683 2.682-.443.63-1.125.967-2.016.967-1.204 0-2.251-1.262-2.251-2.772 0-2.22 1.674-2.933 3.061-3.52 3.17-1.301 7.78-1.805 7.78-9.983 0-6.376-3.928-9.396-8.3-9.396-4.402 0-8.276 2.056-8.357 10.276h5.24c-.029-2.85 1.283-4.404 3.166-4.404 1.206 0 2.752 1.006 2.752 3.02 0 4.11-3.877 3.228-7.988 6.122-1.911 1.345-2.855 4.111-2.855 7.384.209 7.172 4.136 9.144 8.091 9.144 3.906 0 7.908-2.225 7.596-9.52zM410.673 314.944c-.13 2.727-1.412 4.278-3.557 4.278-3.013 0-3.565-5.663-3.565-10.192 0-4.403.605-9.604 3.565-9.604 2.198 0 3.454 1.552 3.557 4.446h5.502c.078-7.635-4.48-10.32-9.059-10.32-5.896 0-9.063 5.665-9.063 15.813 0 10.15 3.167 15.642 9.063 15.732 4.58 0 9.137-2.521 9.059-10.153zM446.34 319.222c-3.56 0-4.293-5.283-4.293-10.024 0-4.488.733-9.771 4.293-9.771 3.562 0 4.295 5.283 4.295 9.77 0 4.742-.733 10.025-4.295 10.025m-9.794-9.899c0 9.983 3.538 15.771 9.794 15.771 6.259 0 9.793-5.788 9.793-15.77 0-9.984-3.534-15.772-9.793-15.772-6.256 0-9.794 5.788-9.794 15.771M484.362 311.63c1.677 0 3.298.377 3.298 3.482 0 3.103-1.621 3.482-3.298 3.482h-2.045v-6.963zm-2.045-17.447h-5.236v30.28h8.743c3.198 0 7.334-1.382 7.334-7.8 0-4.528-2.173-6.921-4.819-7.422v-.167c3.354-.129 3.98-2.856 4.32-7.552.134-2.518.421-4.908.867-7.34h-5.683c-.29 2.095-.445 4.276-.576 6.416-.209 3.651-.315 5.16-2.986 5.16h-1.964zM522.28 310.875c2.067.125 2.933 1.637 2.933 3.86s-.866 3.733-2.933 3.858h-2.699v-7.718zm-7.938-16.69v30.28h8.696c4.638 0 7.674-2.39 7.674-9.73 0-7.342-3.036-9.73-7.674-9.73h-3.457v-10.82zM560.408 319.222c-3.56 0-4.295-5.283-4.295-10.024 0-4.488.736-9.771 4.295-9.771 3.56 0 4.296 5.283 4.296 9.77 0 4.742-.736 10.025-4.296 10.025m-9.796-9.899c0 9.983 3.538 15.771 9.796 15.771 6.26 0 9.797-5.788 9.797-15.77 0-9.984-3.538-15.772-9.797-15.772-6.258 0-9.796 5.788-9.796 15.771M598.428 311.63c1.677 0 3.303.377 3.303 3.482 0 3.103-1.626 3.482-3.303 3.482h-2.04v-6.963zm-2.04-17.447h-5.239v30.28h8.747c3.194 0 7.33-1.382 7.33-7.8 0-4.528-2.172-6.921-4.815-7.422v-.167c3.35-.129 3.977-2.856 4.317-7.552.131-2.518.42-4.908.866-7.34h-5.685c-.286 2.095-.442 4.276-.573 6.416-.21 3.651-.312 5.16-2.984 5.16h-1.963zM639.621 305.967l-2.41 12.585h-.077l-2.566-12.585zm-12.857-11.782 7.462 30.28h6.39l7.464-30.28h-5.919l-1.256 5.913h-7.674l-1.23-5.913zM669.885 318.594H664.1v5.869h16.944v-5.869h-5.92v-24.411h-5.239zM701.21 324.463h5.236v-30.28h-5.237zM737.002 319.222c-3.563 0-4.295-5.283-4.295-10.024 0-4.488.732-9.771 4.295-9.771 3.56 0 4.295 5.283 4.295 9.77 0 4.742-.735 10.025-4.295 10.025m-9.794-9.899c0 9.983 3.535 15.771 9.794 15.771s9.793-5.788 9.793-15.77c0-9.984-3.534-15.772-9.793-15.772-6.259 0-9.794 5.788-9.794 15.771M767.74 324.464h7.333l6.337-22.567.056.089v22.478h4.71v-30.28h-7.25l-6.418 23.191h-.053v-23.19h-4.716z" style="fill:#abaaaa;fill-opacity:1;fill-rule:nonzero;stroke:none;stroke-width:2.78541" transform="matrix(.8889 0 0 -.8889 218.713 430.864)"/><path d="M1038.555 542.408c-8.056 0-14.364 6.076-14.364 14.131v71.711l-2.59-.586c-27.419-6.418-41.859-26.64-41.859-67.393v-8.666c.01-.976.033-1.933.033-2.925l.024-6.155h-.057v-.058l-12.758.03-12.76-.03v.058h-.056l.022 6.155c0 1.023.023 2.01.035 3.015v8.576c0 40.753-14.44 60.975-41.86 67.393l2.522 23.293c23.079-3.03 40.99-14.087 52.096-35.6 11.105 21.513 29.014 32.57 52.095 35.6l5.113.72v12.007h24.176V564.18h20.996v-21.772ZM253.514 542.414v21.768h108.822v17.132H251.098v21.592h54.091v15.617h-54.095v21.768h111.222v23.45h24.178v-31.083c0-8.055-5.34-14.135-13.396-14.135h-40.172v-15.617h53.584V556.54c0-8.055-6.085-14.125-14.14-14.125zM66.803 531.5v32.863H79.27c-5.098 6.322-8.134 14.154-8.134 22.514 0 20.248 17.772 36.664 39.687 36.664 21.92 0 39.686-16.416 39.686-36.664 0-8.36-3.033-16.192-8.131-22.514h34.61l.126 78.487H90.98v-16.723H66.93v23.531c0 8.223 6.452 14.462 14.576 14.832v.112h119.793V642.85h-.012l-.072-45.555h18.04v-21.768H201.18l-.032-18.992c0-8.055-5.675-13.941-13.73-13.941h-96.73V531.5Zm44.021 39.771c8.605 0 15.58 6.976 15.58 15.58 0 8.606-6.975 15.58-15.58 15.58s-15.58-6.974-15.58-15.58c0-8.605 6.975-15.58 15.58-15.58zM423.29 542.414v21.768h52.708l.14 25.611c0 30.398-19.852 44.281-44.345 44.281l-11.373.1v21.775l14.146-.056c35.07 0 66.936-22.058 66.936-67.694l-.004-31.66c0-8.055-6.289-14.125-14.348-14.125zM540.02 542.42c-8.06 0-13.793 6.386-13.793 14.441v106.823h24.175v-99.498h20.996V542.42zM764.363 542.56v21.768h108.729v22.631h-37.414v-14.576H807.94v14.576h-48.959v21.596h30.291c-5.28 5.935-8.37 13.325-8.37 21.758 0 22.294 21.584 40.367 48.212 40.367 26.629 0 48.217-18.073 48.217-40.367 0-8.433-3.092-15.823-8.373-21.758h28.309v-52.18c0-8.055-5.549-13.814-13.604-13.814zm64.782 66.079c11.364 0 20.572 9.211 20.572 20.572 0 11.364-9.208 20.57-20.572 20.57-11.361 0-20.57-9.206-20.57-20.57 0-11.36 9.209-20.572 20.57-20.572z" style="fill:#848282;fill-opacity:1;fill-rule:nonzero;stroke:none;stroke-width:3.71388" transform="matrix(.66667 0 0 .66667 218.713 -315.805)"/><path d="M545.653 362.386H444.108V346.19h101.545Z" style="fill:#848282;fill-opacity:1;fill-rule:nonzero;stroke:none;stroke-width:2.78541" transform="matrix(.8889 0 0 -.8889 218.713 430.864)"/><path d="m647.047 539.5-.026 8.252c0 16.248-15.357 24.569-36.058 25.857l-17.176.397v21.592l15.787-.297c21.223-.91 39.503-7.852 50.498-18.633 10.995 10.781 29.273 17.723 50.498 18.633l15.037.297v-21.592l-16.425-.397c-20.702-1.288-36.059-9.609-36.059-25.857l-.025-8.252H648.92z" style="fill:#848282;fill-opacity:1;fill-rule:nonzero;stroke:none;stroke-width:3.71388" transform="matrix(.66667 0 0 .66667 218.713 -315.805)"/></svg>