<svg xmlns="http://www.w3.org/2000/svg" viewBox="154.27 82.9 1167.55 407.52"><path d="M.928-14.111c.236.829 3.529 12.571 3.835 13.666L.928.061C.698-.77-2.598-12.513-2.908-13.605l3.836-.506Z" style="fill:#00427a;fill-rule:nonzero" transform="scale(-8.33333 8.33333) rotate(7.513 -348.756 -296.38)"/><path d="M0-14.05-2.014 0H7.06c.085-.617.317-2.246.431-3.033H1.995l.372-2.598h4.987c.087-.602.299-2.063.408-2.831h-4.99l.37-2.561h5.349c.091-.616.323-2.244.437-3.027H0Z" style="fill:#00427a;fill-rule:nonzero" transform="translate(588.757 360.323) scale(8.33333)"/><path d="M0 2.048s3.234-7.404 3.491-8.049h4.87c.002.984-.649 13.053-.64 14.05H4.216l.578-9.84S.852 7.42.589 8.049h-2.77l-1.245-9.84c-.089.447-1.404 7.018-2.121 9.84h-3.49c.364-1.253 3.034-13.33 3.242-14.05h4.693L0 2.048Z" style="fill:#00427a;fill-rule:nonzero" transform="translate(229.577 293.24) scale(8.33333)"/><path d="m0 2.56 2.217-5.214.723 5.214H0Zm3.31 2.901s.253 2.288.337 2.844h3.712C7.152 7.147 5.128-4.923 4.978-5.745H.282c-.27.586-5.632 12.667-6.267 14.05h3.767c.201-.474 1.157-2.843 1.157-2.843l4.371-.001Z" style="fill:#00427a;fill-rule:nonzero" transform="translate(504.48 291.107) scale(8.33333)"/><path d="M0-8.777h.863c.592 0 1.251.062 1.66.536.288.335.393.807.307 1.406 0 0-.12 1.076-.824 1.414 0 0-.488.317-1.294.338h-1.749l3.304 7.719h3.754L3.182-3.286c1.72-.316 3.063-.828 3.402-3.495.046-.336.074-.655.074-.954 0-.988-.258-1.786-.772-2.378-.934-1.076-2.535-1.3-3.716-1.3h-5.307c-.123.853-1.851 12.924-2.018 14.049h3.527C-1.513 1.851 0-8.777 0-8.777" style="fill:#00427a;fill-rule:nonzero" transform="translate(402.038 338.34) scale(8.33333)"/><path d="M-7.575-20.09c-4.612 8.439-2.036 17.66-.336 22.878l.336-.065C-7.957.229-9.594-7.942-5.668-15.453l-1.907-4.637Z" style="fill:#f5821f;fill-rule:nonzero" transform="scale(-8.33333 8.33333) rotate(-42.236 -41.586 188.611)"/><path d="M0-.021c-.04.008-.081.013-.122.021.039-.008.082-.013.122-.021" style="fill:#00427a;fill-rule:nonzero" transform="translate(992.866 298.357) scale(8.33333)"/><path d="M0 .048A6.21 6.21 0 0 1 .206 0L-.01.048H0Z" style="fill:#00427a;fill-rule:nonzero" transform="translate(1035.141 289.398) scale(8.33333)"/><path d="M0-.038c-.083.014-.159.024-.241.038.082-.014.158-.024.241-.038" style="fill:#00427a;fill-rule:nonzero" transform="translate(983.683 300.007) scale(8.33333)"/><path d="M0-.195C-.27-.13-.54-.064-.813 0-.54-.064-.27-.13 0-.195" style="fill:#00427a;fill-rule:nonzero" transform="translate(1047.575 288.482) scale(8.33333)"/><path d="M0 .012C.024.008.05.003.077 0 .05.003.024.008 0 .012" style="fill:#00427a;fill-rule:nonzero" transform="translate(972.308 301.332) scale(8.33333)"/><path d="M0-.134c-.17.046-.338.089-.51.134.172-.045.34-.088.51-.134" style="fill:#00427a;fill-rule:nonzero" transform="translate(1063 284.04) scale(8.33333)"/><path d="M0-.002c-.01 0-.018 0-.029.002.011-.002.02-.002.029-.002" style="fill:#00427a;fill-rule:nonzero" transform="translate(921.725 307.332) scale(8.33333)"/><path d="M0-.381h-.003c-.389.127-.785.252-1.194.381.409-.129.81-.254 1.197-.381" style="fill:#00427a;fill-rule:nonzero" transform="translate(1098.608 275.532) scale(8.33333)"/><path d="M0-.151" style="fill:#00427a;fill-rule:nonzero" transform="translate(1086.55 277.415) scale(8.33333)"/><path d="M0-.49" style="fill:#00427a;fill-rule:nonzero" transform="translate(1080.183 282.165) scale(8.33333)"/><path d="M0-.128" style="fill:#00427a;fill-rule:nonzero" transform="translate(1055.658 285.932) scale(8.33333)"/><path d="M0 .003h.032C.022.003.009.003 0 0v.003Z" style="fill:#00427a;fill-rule:nonzero" transform="translate(785.282 309.415) scale(8.33333)"/><path d="M0 .001-.004 0h-.15L0 .001" style="fill:#00427a;fill-rule:nonzero" transform="translate(838.95 310.865) scale(8.33333)"/><path d="M0 .004C-.09.001-.18.001-.27 0c.09.001.18.001.27.004" style="fill:#00427a;fill-rule:nonzero" transform="translate(827.096 310.765) scale(8.33333)"/><path d="M0-.009c-.032.002-.068.004-.103.009.035-.005.071-.007.103-.009" style="fill:#00427a;fill-rule:nonzero" transform="translate(913.333 308.073) scale(8.33333)"/><path d="M0-.008c-.026.002-.05.003-.077.008.027-.005.051-.006.077-.008" style="fill:#00427a;fill-rule:nonzero" transform="translate(894.9 309.307) scale(8.33333)"/><path d="M0-.005c-.032 0-.064.004-.094.005.03-.001.062-.005.094-.005" style="fill:#00427a;fill-rule:nonzero" transform="translate(904.208 308.723) scale(8.33333)"/><path d="M0 .003C.014.003.025 0 .039 0 .025 0 .014 0 0 .003" style="fill:#00427a;fill-rule:nonzero" transform="translate(885.141 309.748) scale(8.33333)"/><path d="M0 5.627c-.026-.01-1.024-.512-1.024-.512l-.013-.005-.014-.009c-.328-.189-1.101-.638-1.101-1.392.003-.361.145-.682.406-.898.317-.27.808-.367 1.335-.272.665.103 1.428.535 2.266 1.255l1.433-2.752C2.327.25 1.393-.176.006-.421c-1.716-.253-3.374.113-4.534.994-.981.752-1.591 1.848-1.751 3.176a5.565 5.565 0 0 0-.038.658c0 .731.151 1.364.459 1.894 2.094-.048 4.295-.152 6.517-.334A6.87 6.87 0 0 0 0 5.627" style="fill:#00427a;fill-rule:nonzero" transform="translate(956.116 242.407) scale(8.33333)"/><path d="M0-3.341C-.083-2.753-.356-.904-.486 0c2.726-.763 6.03-1.862 9.087-3.341H0Z" style="fill:#00427a;fill-rule:nonzero" transform="translate(1086.625 271.082) scale(8.33333)"/><path d="M0-7.688c-.384.127-.784.252-1.194.381l-.25.075c-.163.052-.33.102-.498.151-.089.028-.179.052-.267.08a77.42 77.42 0 0 1-1.73.489c-.109.03-.22.063-.332.093l-.509.133-.371.099c-.172.041-.338.083-.512.128-.149.037-.305.076-.459.111l-.814.196c-.159.037-.311.076-.471.11-.07.015-.139.031-.206.048h-.008c-1.587.36-3.275.7-5.066 1.006-.041.007-.082.012-.122.02-.322.055-.65.107-.98.16-.082.014-.159.025-.241.038-.346.053-.696.107-1.047.159-.027.003-.053.008-.077.012-1.922.281-3.947.519-6.07.706-.008 0-.018 0-.029.002-.321.029-.648.055-.977.08-.033.002-.069.004-.103.009l-.992.073c-.032 0-.064.004-.094.005-.34.022-.682.042-1.023.063-.026.002-.052.003-.078.008-.351.017-.7.037-1.055.052-.014 0-.025.003-.039.003-1.788.086-3.637.131-5.546.131l.004.001-.154-.001c-.419 0-.843-.004-1.269-.008-.09-.003-.18-.003-.27-.004a116.7 116.7 0 0 1-4.715-.159h-.033v-.003a128.372 128.372 0 0 1-7.566-.627l2.996-2.818s1.746.523 4.149.955a1799.32 1799.32 0 0 0-.918-5.451h-4.699c-.274.586-5.633 12.667-6.267 14.05h3.767l1.467-3.493 3.927-.003s.382 2.94.47 3.496h3.715c-.085-.455-.443-2.573-.857-5.035 2.645.145 5.3.177 7.771.138a1.31 1.31 0 0 1 .165.935 1.123 1.123 0 0 1-.473.755c-.512.359-1.245.28-1.751.193-1.201-.21-2.15-1.12-2.921-1.872l-1.82 2.967c1.415 1.288 2.947 2.074 4.567 2.299 1.634.246 3.26-.122 4.461-1.009 1.047-.773 1.712-1.904 1.915-3.269.066-.395.092-.765.074-1.119 2.648-.113 4.848-.278 6.263-.402.462.339.702.74.702 1.197 0 .087-.012.168-.023.26a1.143 1.143 0 0 1-.477.755c-.513.359-1.244.28-1.749.193-1.201-.21-2.154-1.12-2.917-1.872L-25.451.949c1.418 1.288 2.947 2.074 4.565 2.299 1.638.246 3.259-.122 4.459-1.009 1.053-.773 1.714-1.904 1.917-3.269.13-.76.101-1.446-.079-2.057.597-.089 1.173-.176 1.728-.266a4044.8 4044.8 0 0 1-.892 6.221h9.073l.434-3.034h-5.499l.375-2.597h4.985l.369-2.569a22.284 22.284 0 0 0 1.021-.344s1.687-.507 3.87-1.316C.562-4.792-.4 1.932-.535 2.868h3.931c.116-.833 1.515-10.556 1.515-10.556h2.842c.086-.604.356-2.534.483-3.41-1.474.819-4.261 2.105-8.236 3.41" style="fill:#00427a;fill-rule:nonzero" transform="translate(1098.591 336.423) scale(8.33333)"/><path d="M0 7.007a5.718 5.718 0 0 0-1.196-.706c-.017-.01-1.015-.512-1.015-.512l-.021-.005-.013-.01c-.331-.188-1.101-.637-1.101-1.391.003-.361.146-.682.403-.898.325-.27.814-.367 1.337-.272.665.103 1.43.535 2.271 1.255.396-.767 1.16-2.228 1.428-2.752C1.132.924.204.498-1.189.252-2.904 0-4.562.366-5.722 1.247c-.983.752-1.588 1.848-1.751 3.176a5.36 5.36 0 0 0-.038.658c0 .618.111 1.168.33 1.645l.242.016c1.76.134 4.166.243 6.939.265" style="fill:#00427a;fill-rule:nonzero" transform="translate(874.483 236.79) scale(8.33333)"/><path d="M0 .585h5.352c.088-.616.324-2.244.434-3.027h-8.922c-.055.363-.401 2.752-.788 5.469a71.83 71.83 0 0 0 3.652-.548L0 .585Z" style="fill:#00427a;fill-rule:nonzero" transform="translate(1026.933 263.59) scale(8.33333)"/><path d="M0-11.048-1.946 0H-3.87l1.948-11.048H0Zm-8.677 1.757-1.148 6.467h2.71l1.136-6.467h-2.698Zm4.885-1.528-1.683 9.546h-4.934c-.535 0-.914-.11-1.135-.331-.22-.213-.294-.532-.218-.957l1.455-8.258h6.515Z" style="fill:#00427a;fill-rule:nonzero" transform="translate(570.841 487.523) scale(8.33333)"/><path d="m0-10.588-.903 5.126h-2.512l-.53 2.997H-.54l1.477-8.356h1.921l-.776 4.386h1.432l.772-4.386h1.923L4.262.224H2.35l.919-5.228H1.84L.918.233h-1.932l.227-1.287h-3.654c-.544 0-.937-.104-1.176-.309-.247-.219-.332-.541-.259-.955l.767-4.351h2.496l.436-2.525h-2.487l.246-1.394H0Z" style="fill:#00427a;fill-rule:nonzero" transform="translate(631.213 485.64) scale(8.33333)"/><path d="M0-10.981-1.949.067h-1.869l1.946-11.048H0ZM-9.499-8.71c-.305.697-.558 1.617-.756 2.754-.214 1.203-.291 2.16-.237 2.871.056.767.265 1.15.63 1.15.345 0 .684-.383 1.016-1.15.309-.711.57-1.668.779-2.871.201-1.137.275-2.057.213-2.754-.063-.756-.269-1.134-.615-1.134-.363 0-.705.378-1.03 1.134m2.485 3.536.28-1.427h1.269l.775-4.382h1.859L-4.778.063h-1.869l.926-5.239-1.293.002Zm.709-.606c-.286 1.471-.742 2.664-1.381 3.572-.682.978-1.474 1.468-2.38 1.468-.926 0-1.557-.512-1.895-1.532-.309-.945-.329-2.173-.061-3.686.256-1.462.703-2.66 1.341-3.585.697-1.002 1.507-1.505 2.431-1.505.793 0 1.375.383 1.742 1.149.34.715.459 1.67.361 2.871 0 0-.014.356-.158 1.248" style="fill:#00427a;fill-rule:nonzero" transform="translate(793.538 486.965) scale(8.33333)"/><path d="M0 6.744c.711.536 1.602.887 2.679 1.047L1.681 8.89c-.928-.165-1.762-.445-2.493-.841-.736-.418-1.25-.892-1.537-1.417-.449.525-1.14 1.004-2.078 1.428-.939.425-1.943.717-3.006.881l-.536-1.085a8.243 8.243 0 0 0 3.115-1.059c1.12-.664 1.754-1.43 1.906-2.298h1.918c-.152.868.193 1.615 1.03 2.245m4.003-8.941L2.895 4.107H.998l1.109-6.304h1.896Zm-2.832.002L.061 4.106h-1.895l.542-3.087h-1.371l.219-1.252h1.376l.344-1.962h1.895Zm-4.572.085c-.247 1.413-.274 2.528-.083 3.342.181.792.59 1.406 1.231 1.84l-1.138.806a4.149 4.149 0 0 1-1.1-1.113 7.556 7.556 0 0 1-.575-1.008c-.288.349-.597.681-.926.992A8.117 8.117 0 0 1-7.49 3.901l-.844-.817c.789-.486 1.397-1.073 1.828-1.762.537-.833.933-1.977 1.19-3.432h1.915Z" style="fill:#00427a;fill-rule:nonzero" transform="translate(870.716 413.773) scale(8.33333)"/><path d="M0 3.879c.744.4 1.066.896.96 1.484-.1.59-.597 1.086-1.482 1.489-.992.451-2.271.676-3.841.676-1.592 0-2.804-.225-3.644-.676-.746-.403-1.062-.899-.959-1.489.104-.588.596-1.084 1.485-1.484.997-.444 2.289-.669 3.876-.669 1.573 0 2.772.225 3.605.669m-6.177.87c-.517.164-.796.367-.837.614-.043.24.163.442.621.606.524.185 1.274.282 2.254.282.963 0 1.734-.097 2.316-.282.52-.164.803-.366.847-.606.043-.247-.17-.45-.633-.614-.524-.179-1.266-.267-2.218-.267-.972 0-1.756.088-2.35.267M2.37 1.223 2.146 2.49H-9.14l.226-1.267H2.37Zm.091-4.872-.223 1.265h-3.983c-.083.478.298.894 1.149 1.243.814.343 1.893.559 3.239.655l-1.007 1C.406.395-.587.223-1.346-.001c-.75-.21-1.292-.481-1.629-.807-.457.326-1.108.597-1.963.807-.829.214-1.842.388-3.043.515l-.55-1.013c1.376-.085 2.511-.304 3.405-.654.893-.331 1.384-.742 1.467-1.231h-3.8l.222-1.265h9.698Z" style="fill:#00427a;fill-rule:nonzero" transform="translate(991.566 427.69) scale(8.33333)"/><path d="m0-10.991-1.479 8.374h-1.927l.177-1.016h-2.212l.22-1.242h2.209l.158-.876h-4.232l-.441 2.511h-1.586l-.347 1.973h7.821L-1.86 0h-8.044c-.617 0-1.045-.098-1.279-.296-.219-.188-.29-.499-.213-.936l.445-2.515h1.584l.352-2.004h-2.811l.219-1.242h4.834c.177-.326.326-.684.435-1.076.098-.331.197-.812.307-1.436h-4.627l.223-1.267h6.534l-.286 1.607c-.076.43-.164.795-.269 1.104-.121.369-.27.724-.451 1.068h2.273l.702-3.998H0Z" style="fill:#00427a;fill-rule:nonzero" transform="translate(1124.133 487.048) scale(8.33333)"/></svg>