<svg xmlns="http://www.w3.org/2000/svg" viewBox="0 0 171.455 25.182"><path d="m15.158 0-4.966 2.494L5.227 0l4.965 9.441L15.158 0z" style="fill:#fdbb2f"/><path d="m176.617 354.144-.076-.065 3.542-1.492v-4.98l-6.156 2.625s-3.332 6.314-3.41 6.459a5.177 5.177 0 1 1-1.211 0l-3.406-6.459-6.148-2.625v4.98l3.54 1.492-.076.065a10.192 10.192 0 1 0 13.4 0" style="fill:#fdbb2f" transform="translate(-159.722 -346.847)"/><path d="M307.625 360.017a.276.276 0 0 1 .269.247 3.037 3.037 0 0 1 0 .892.288.288 0 0 1-.271.287h-10.5l.045.006c-3.528 0-6.312 1.194-6.312 3.818s2.823 3.82 6.312 3.82 6.315-1.2 6.315-3.82a3.109 3.109 0 0 0-1.556-2.721h4a4.062 4.062 0 0 1 .85 2.552c0 3.738-4.3 5.44-9.61 5.44s-9.607-1.7-9.607-5.44a4.283 4.283 0 0 1 2.039-3.655h-2.9l-.944-1.426ZM307.863 357.163l-.846 1.307c-5.228 0-8.917-1.537-10.172-3.51-1.257 1.973-4.947 3.51-10.175 3.51l-.847-1.307c4.615 0 8.971-2.1 8.971-4.946h-7.535l-.923-1.435h20.221c.23 0 .282.283.282.717s-.052.718-.282.718h-7.663c0 2.845 4.356 4.946 8.969 4.946M320.362 352.25h-8.508l-.922-1.437h12.558a.789.789 0 0 1 .768.77v6.51h3.587v-8.049h2.562a.789.789 0 0 1 .769.769v18.709h-17.425a1.544 1.544 0 0 1-1.539-1.538v-4.357h2.564a.788.788 0 0 1 .769.77v2.921a.786.786 0 0 0 .768.768h11.532v-4.561h-5.228l-.921-1.434h6.149v-2.564h-9.1v3.589h-3.33v-3.589h-4.333l-.922-1.434h10.763v-5.315c0-.491-.564-.528-.564-.528M232.166 350.269h-2.976v7.682h-12.164v-7.682h-2.976a1.412 1.412 0 0 0-1.277 1.514v16.239a1.415 1.415 0 0 0 1.277 1.516h2.976v-8.25h12.164v8.25h2.976a1.416 1.416 0 0 0 1.28-1.516v-16.239a1.407 1.407 0 0 0-1.28-1.514M207.811 350.269h-2.976v14.755l-8.947-11.787c-1.486-1.721-2.509-2.968-4.886-2.968h-3.032v17.753a1.415 1.415 0 0 0 1.285 1.516h2.972v-14.823l9 11.707c1.52 1.76 2.874 3.116 5.08 3.116h2.779v-17.755a1.41 1.41 0 0 0-1.278-1.514M258.473 363.893h-9.084v5.647h-3.336v-5.647H237.1l-.924-1.437h22.3c.232 0 .282.282.282.719s-.05.718-.282.718m-20.505-5.107v-8.109h19.219c.231 0 .283.282.283.718s-.052.719-.283.719h-15.885v2.486h15.757c.231 0 .282.282.282.719s-.051.718-.282.718h-15.757v2.079a.789.789 0 0 0 .769.771h15.373c.23 0 .283.281.283.717s-.053.719-.283.719h-17.939a1.545 1.545 0 0 1-1.54-1.54M275.333 368c-2.669-.847-5.723-3.055-6.825-5.646-1.1 2.591-4.159 4.8-6.827 5.646l-1.13-1.052a9.8 9.8 0 0 0 6.287-9.317v-5.388h-4.851l-.922-1.437h14.346c.23 0 .282.282.282.718s-.052.719-.282.719h-5.236v5.388a9.8 9.8 0 0 0 6.288 9.317Zm3.183 1.539v-19.5h2.566a.79.79 0 0 1 .77.77v5.132h2.541c.231 0 .282.282.282.717s-.051.72-.282.72h-2.541v12.164Z" style="fill:#0078c1" transform="translate(-159.722 -346.847)"/></svg>