<svg xmlns="http://www.w3.org/2000/svg" width="425.31598" height="169.91313" viewBox="0 0 425.31598 169.91313"><path d="M132.913 171.532c-9.642-2.226-16.176-9.705-18.172-20.8-.717-3.987-.498-10.535.483-14.402 2.474-9.755 9.025-16.5 17.842-18.37 3.351-.71 9.083-.532 11.891.371 11.372 3.657 17.925 15.16 16.785 29.463-.34 4.277-1.31 7.822-3.17 11.591-3.965 8.04-11.662 12.718-20.778 12.631-1.595-.015-3.792-.233-4.88-.484zm8.85-7.26c5.08-1.384 8.253-4.73 10.378-10.94.803-2.349.868-2.965.884-8.407.015-5.142-.075-6.175-.716-8.295-2.283-7.544-7.522-11.915-14.281-11.915-6.93 0-12.288 4.76-14.392 12.782-.74 2.827-.845 10.97-.176 13.819 1.143 4.865 4.163 9.56 7.444 11.573 2.933 1.8 7.296 2.355 10.86 1.383zm205.303 7.232c-3.18-.654-7.781-3.109-10.294-5.492-3.612-3.424-6.342-8.625-7.56-14.401-.71-3.368-.713-10.338-.005-13.693 2.038-9.658 7.488-16.41 15.552-19.269 3.544-1.256 9.004-1.545 13.05-.69 5.602 1.185 10.519 4.487 13.203 8.867 1.175 1.916 2.6 5.903 2.61 7.303l.007.95H365.5l-.557-1.852c-1.439-4.778-5.622-7.928-11.177-8.415-9.86-.866-16.489 7.15-16.489 19.94 0 12.264 5.985 20.056 15.385 20.032 2.572-.006 5.908-.837 7.643-1.901 3.29-2.02 5.63-6.106 5.98-10.444l.175-2.16H353.17V143.37h21.118v27.665l-2.71-.1-2.71-.1-.672-2.986-.673-2.986-2.122 2.021c-3.89 3.705-7.63 5.172-13.056 5.122-1.634-.015-4.01-.24-5.28-.502zm50.156.316c-9.478-1.59-15.56-7.846-16.068-16.531l-.1-1.728 4.165-.096c4.093-.095 4.17-.083 4.368.69.11.434.205 1.177.21 1.652.011 1.366 1.454 4.201 2.848 5.597 2.397 2.4 6.54 3.638 10.95 3.275 4.482-.37 7.271-1.916 8.684-4.816.545-1.117.66-1.88.56-3.719-.23-4.281-1.737-5.446-10.008-7.736-12.316-3.412-14.307-4.272-16.983-7.337-2.139-2.45-2.822-4.553-2.79-8.583.019-2.357.204-3.59.766-5.095.857-2.296 3.27-5.231 5.565-6.767 5.73-3.835 15.475-4.207 22.179-.847 2.772 1.39 5.754 4.236 6.898 6.582.851 1.748 1.69 4.994 1.69 6.545v1.137H411.633l-.229-1.469c-.344-2.21-1.762-4.683-3.337-5.817-3.598-2.592-10.127-2.728-13.801-.289-3.581 2.378-3.7 7.628-.234 10.258 1.394 1.057 2.477 1.424 12.428 4.21 3.448.965 7.048 2.152 7.999 2.636 2.354 1.2 4.612 3.663 5.833 6.361.953 2.105 1.017 2.497 1.017 6.227 0 3.81-.047 4.081-1.095 6.31-2.863 6.086-8.612 9.165-17.549 9.399-2.45.064-4.9.042-5.444-.05zM66.094 144.752v-26.255h8.579v21.082l11.467-.09 11.466-.092.088-10.45.087-10.45h8.574l-.085 26.169-.085 26.169-4.202.096-4.203.097-.087-11.843-.087-11.842-11.467-.09-11.466-.092v23.846h-8.58zm103.941 0v-26.255h8.58v44.565h25.408v7.945h-33.988zm40.257.008v-26.332l12.292.154c11.238.142 12.512.218 14.87.89 5.665 1.616 9.935 5.218 12.394 10.455 2.337 4.978 2.8 7.43 2.8 14.826 0 5.475-.102 6.787-.715 9.155-2.212 8.546-7.164 14.058-14.48 16.115-2.334.656-3.74.74-14.87.897l-12.29.172zm23.067 18.116c7.572-1.869 10.897-7.4 10.897-18.123 0-8.682-2.161-13.907-6.83-16.512-3.123-1.743-5.377-2.133-12.368-2.138l-6.187-.005v37.31l6.187-.005c4.35-.003 6.815-.16 8.301-.527zm27.419-18.124v-26.255h8.58V171.008h-8.58zm19.138 0v-26.255h9.106l11.168 18.914c6.142 10.403 11.37 19.142 11.616 19.42.378.427.448-2.54.448-18.924v-19.431l4.042.097 4.042.097v52.165h-9.137l-11.435-19.342-11.435-19.341-.086 19.428-.085 19.428h-8.244zM10.766 118c-1.983-.649-3.4-1.653-5.3-3.756-2.034-2.252-3.286-4.753-3.902-7.793-.697-3.444-.688-64.033.01-68.793.978-6.66 2.92-12.01 6.275-17.29C15.65 8.094 28.642 1.43 43.296 2.19c10.692.554 19.575 4.714 26.772 12.54 3.417 3.714 5.167 6.353 7.27 10.964 6.255 13.718 4.855 30.652-3.554 42.994-12.298 18.05-37.077 22.662-55.06 10.248l-3.116-2.15-.002 18.869c-.001 11.866-.128 19.344-.341 20.148-.356 1.343-1.682 2.71-2.589 2.67-.293-.012-1.153-.226-1.91-.474zm33.68-46.848c11.309-1.647 20.144-10.668 22.131-22.598.636-3.817.636-5.537 0-9.355-3.069-18.424-22.04-28.363-37.44-19.614-6.37 3.619-10.853 9.591-12.92 17.21-1.065 3.924-1.065 10.24 0 14.164 1.552 5.722 4.65 10.826 8.587 14.146 5.914 4.988 12.658 7.064 19.642 6.047zm81.208 14.63c-2.803-.267-6.901-1.21-9.66-2.224-6.285-2.31-11.24-5.703-15.913-10.9-4.648-5.169-7.605-10.901-9.46-18.341-1.158-4.644-1.429-12.289-.616-17.378 2.9-18.155 15.639-31.379 33.123-34.384 3.85-.662 11.171-.488 14.846.352 17.533 4.008 29.82 18.595 31.364 37.23 1.061 12.814-3.137 25.147-11.504 33.795-8.255 8.533-20.325 12.978-32.18 11.85zm10.889-15.317c7.289-2.388 12.827-7.503 16.185-14.95 1.832-4.06 2.283-6.366 2.278-11.638-.005-5.474-.46-7.603-2.619-12.264-3.276-7.075-9.384-12.377-16.574-14.386-3.353-.937-8.853-1.002-12.139-.144-8.228 2.15-15.142 8.6-18.169 16.952-5.716 15.77 3.404 33.571 18.946 36.98 3.164.695 9.12.424 12.092-.55zm73.75 15.319c-10.166-1.14-19.443-5.769-25.88-12.912-4.906-5.446-7.507-11.443-6.13-14.138.463-.905 3.5-1.507 6.051-1.2 4.654.558 6.918 1.764 10.78 5.741 5.494 5.657 10.738 8.298 17.489 8.809 7.065.535 14.792-2.551 19.975-7.977 2.704-2.83 4.158-5.6 4.375-8.33.127-1.604.042-1.94-.681-2.696-.454-.476-1.4-1.017-2.101-1.202-.702-.185-10.408-.49-21.57-.676-19.015-.319-20.467-.387-23.065-1.077-5.963-1.584-9.672-4.378-11.802-8.89-1.123-2.378-1.227-2.862-1.362-6.285-.12-3.064-.022-4.182.57-6.44 2.476-9.448 11.113-18.851 21.314-23.206 9.156-3.908 19.197-4.244 28.865-.966 7.798 2.644 14.08 7.176 18.626 13.434 3.89 5.356 5.042 9.456 3.091 10.996-1.23.971-4.985 1.19-7.944.464-3.272-.804-5.215-1.98-8.427-5.105-3.413-3.318-4.856-4.395-8.02-5.983-3.629-1.82-6.551-2.376-11.311-2.153-4.69.22-7.754 1.033-11.43 3.036-7.041 3.835-12.314 11.622-10.44 15.416.286.577 1.082 1.34 1.77 1.697 1.168.604 2.683.666 22.37.919 23.106.296 25.353.47 28.968 2.24 4.61 2.26 7.063 5.856 7.823 11.473 1.489 11.01-8.336 25.449-21.435 31.5-6.111 2.824-14.21 4.213-20.47 3.51zm83.813-.126c-17.361-2.272-30.837-15.073-34.347-32.626-2.307-11.54.048-24.198 6.193-33.29 4.87-7.205 12.208-12.864 20.188-15.57 4.624-1.567 7.018-1.924 12.915-1.924 5.897 0 8.29.357 12.915 1.925 10.157 3.443 18.66 11.072 23.134 20.756 2.88 6.232 3.664 10.2 2.253 11.395-1.536 1.302-6.016 1.28-9.373-.048-2.23-.882-4.547-3.124-7.013-6.788-3.648-5.419-6.372-8.032-10.817-10.375-6.681-3.523-15.454-3.558-22.036-.087-7.532 3.971-12.412 10.45-14.295 18.978-.624 2.825-.64 8.785-.03 11.793 2.37 11.706 12.295 20.839 23.484 21.608 9.377.645 17.891-3.92 23.446-12.57 1.014-1.58 2.339-3.327 2.944-3.883a14.335 14.335 0 0 1 9.781-3.82c2.686 0 4.106.637 4.43 1.99.524 2.185-2.414 9.816-5.801 15.072-5.678 8.81-14.65 14.935-24.84 16.959-3.347.665-9.968.92-13.131.505zm87.5.007c-17.476-2.3-30.819-15.021-34.409-32.806-.579-2.868-.73-4.747-.724-8.982.008-5.848.434-8.676 2.092-13.895 4.35-13.699 15.4-23.872 29.407-27.075 3.675-.84 10.996-1.014 14.847-.352 15.39 2.646 27.187 13.226 31.76 28.486 1.43 4.77 1.933 8.914 1.745 14.39-.238 6.989-1.441 12.069-4.234 17.887-1.944 4.05-3.654 6.556-6.824 9.998-5.586 6.067-12.644 10.054-20.93 11.823-3.2.683-9.546.945-12.73.526zm11.326-15.018c8.736-2.5 15.79-10.062 18.364-19.688 1.01-3.773 1.019-10.192.021-14.036-4.321-16.653-21.678-25.285-35.873-17.84-6.447 3.381-11.074 8.964-13.393 16.158-.903 2.8-1.08 3.914-1.211 7.6-.175 4.944.463 8.586 2.214 12.629 3.404 7.858 10.636 13.88 18.849 15.691 2.089.46 8.7.153 11.03-.514z" style="fill:#05507d;fill-opacity:1;stroke-width:.337631" transform="translate(-1.046 -2.104)"/></svg>