<svg xmlns="http://www.w3.org/2000/svg" width="88.54435mm" height="24.993601mm" viewBox="0 0 88.54435 24.993602"><g style="font-style:italic;font-weight:700;font-size:25.4px;font-family:SamsungGothicRoundOTF;fill:#003cdc;stroke-width:10.5833;stroke-linecap:square"><path d="m12.268 12.497 1.778-2.413c-1.32-.635-2.667-1.6-3.657-2.896-.991-1.244-1.651-2.768-1.651-4.572V.533H5.436v2.134c0 1.829-.635 3.454-1.651 4.851C2.769 8.941 1.422 10.058 0 10.871l1.981 2.312c1.143-.686 2.26-1.55 3.175-2.54.89-.94 1.6-1.982 2.032-2.972 1.042 1.93 2.642 3.505 5.08 4.826zM18.771 8h3.683V5.334H18.77V0h-3.15v13.411h3.15zM5.436 24.054H18.77v-9.728H5.436zm10.185-7.061v4.42H8.56v-4.42zM35.433 12.903l1.778-2.464c-1.346-.685-2.692-1.6-3.632-2.819-.99-1.194-1.6-2.667-1.6-4.572V.533h-3.353V3.1c0 1.727-.584 3.251-1.524 4.572-.94 1.346-2.337 2.514-3.886 3.53l1.955 2.363c1.22-.737 2.312-1.702 3.226-2.642.89-.94 1.575-1.93 1.956-2.845.406.813 1.092 1.702 1.981 2.54.89.89 1.981 1.677 3.099 2.286zm4.369.635h3.15V0h-3.15v4.216h-4.445V7.01h4.445zm2.768 5.283c0-1.625-.66-2.997-1.752-3.987-1.118-.991-2.667-1.575-4.496-1.575-1.829 0-3.353.584-4.445 1.575-1.118.99-1.753 2.362-1.753 3.987 0 1.702.635 3.074 1.753 4.064 1.092.94 2.616 1.499 4.445 1.499 1.829 0 3.378-.559 4.496-1.499 1.092-.99 1.752-2.362 1.752-4.064zm-3.098 0c0 1.753-1.321 2.921-3.15 2.921s-3.099-1.168-3.099-2.92c0-1.728 1.27-2.896 3.099-2.896.914 0 1.676.305 2.26.813a2.87 2.87 0 0 1 .89 2.082zM58.37 3.226h5.308V.584h-14.58v2.642h5.334c-.38.99-1.346 1.905-2.54 2.616-1.194.737-2.59 1.32-3.81 1.55l1.296 2.59a14.926 14.926 0 0 0 3.962-1.55c1.22-.685 2.337-1.549 3.073-2.488.737.914 1.83 1.727 3.074 2.413 1.219.685 2.616 1.219 3.962 1.549l1.296-2.54c-1.423-.381-2.896-.889-4.039-1.6-1.143-.686-2.032-1.524-2.337-2.54zM46.024 13.792h20.777v-2.667H46.025zm16.84 6.274c0-1.55-.711-2.769-1.854-3.658-1.194-.838-2.769-1.32-4.598-1.32-1.752 0-3.352.482-4.546 1.32-1.194.839-1.93 2.109-1.93 3.658 0 1.626.787 2.87 2.006 3.708 1.22.813 2.845 1.22 4.47 1.22 1.6 0 3.2-.432 4.42-1.245 1.22-.813 2.032-2.057 2.032-3.683zm-3.048 0c0 .711-.381 1.295-.99 1.702-.61.406-1.474.66-2.414.66-2.032 0-3.429-.94-3.429-2.362 0-1.422 1.397-2.413 3.43-2.413.94 0 1.803.254 2.412.66.61.432.991 1.042.991 1.753zM68.53 9.17l.304 2.844a181.53 181.53 0 0 0 5.309-.228v3.429h3.098v-3.633c2.642-.203 5.233-.457 7.824-.762v2.16H80.34v2.387h4.725v2.642h3.124V0h-3.124v8.28c-1.093.127-2.185.229-3.302.33.355-2.21.508-4.444.482-6.629v-.813H70.41v2.718h8.636c.05 1.473-.076 3.15-.33 4.953-3.353.229-6.757.33-10.186.33zm5.968 14.452h14.046V20.93H77.597v-4.344h-3.099z"/></g></svg>