<svg xmlns="http://www.w3.org/2000/svg" width="274.57907pt" height="75pt" viewBox="0 0 274.57906 75"><path fill="#003cdc" d="M56.888 40.653h-9.544V.001h9.544v16.166h11.158v8.088H56.888ZM25.946 64.907h21.402V51.513H25.946Zm-9.47-21.483h40.412v29.49H16.475Zm5.313-20.171c-1.308 3.003-3.464 6.157-6.157 9.01-2.772 2.999-6.162 5.619-9.626 7.697L0 32.955C4.311 30.49 8.394 27.1 11.475 22.788c3.077-4.234 5-9.16 5-14.703v-6.47h10.009V7.93c0 5.468 2 10.085 4.996 13.859 3.007 3.928 7.083 6.854 11.088 8.777l-5.39 7.315c-7.389-4.006-12.235-8.778-15.389-14.63M120.882 21.251h-13.473V12.78h13.473V0h9.544v41.04h-9.544zm-3.696 30.574c-1.766-1.54-4.076-2.465-6.847-2.465-5.546 0-9.393 3.541-9.393 8.778 0 5.313 3.847 8.855 9.393 8.855 5.542 0 9.544-3.542 9.544-8.855a8.673 8.673 0 0 0-2.697-6.313m6.773 18.631C120.576 73.305 115.88 75 110.339 75c-5.546 0-10.163-1.695-13.472-4.544-3.39-3.003-5.31-7.16-5.31-12.318 0-4.927 1.92-9.087 5.31-12.087 3.309-3.003 7.926-4.776 13.472-4.776 5.542 0 10.237 1.773 13.62 4.776 3.309 3 5.313 7.16 5.313 12.087 0 5.159-2.004 9.315-5.313 12.318M98.252 32.185c-2.697-2.543-4.775-5.237-6.006-7.702-1.153 2.771-3.228 5.774-5.925 8.623-2.772 2.852-6.077 5.778-9.777 8.011l-5.925-7.164c4.695-3.08 8.929-6.621 11.78-10.7 2.846-4.002 4.618-8.623 4.618-13.86V1.614h10.156V9.24c0 5.774 1.85 10.24 4.85 13.859 2.848 3.696 6.93 6.467 11.006 8.545l-5.387 7.47c-3.387-1.847-6.696-4.235-9.39-6.928M157.576 28.717c0 3.309 2.617 5.929 6.847 5.929 4.311 0 6.854-2.62 6.854-5.93 0-3.308-2.543-6.006-6.854-6.006-4.23 0-6.847 2.698-6.847 6.007M154.883.306h18.86v8.007h-18.86zm4.919 46.43v-5.085c-7.307-1.614-11.31-6.773-11.31-12.934 0-3.387 1.696-6.696 4.467-9.084h-9.316V12.01h41.412v7.624h-9.006c2.77 2.462 4.389 5.775 4.389 9.239 0 6.08-3.696 11.088-11.007 12.702v4.698c6.54-.383 13.085-.848 19.545-1.54V0h9.474v24.328h10.774v8.085H198.45v32.184h-9.474V52.433c-15.01 1.691-30.401 2.848-46.184 3.31l-.921-8.624c6.006 0 11.936-.154 17.93-.383M265.264 28.256h-5.848v33.647h-9.239V.925h9.239V20.17h5.848V0h9.315v64.52h-9.315zm-25.71 1.614c2.388 4.544 5.851 7.856 10.085 10.705l-5.697 7.315c-2.693-1.85-5.542-4.544-7.775-7.315-2.384-2.771-4.23-5.697-4.92-8.085-2.155 6.777-6.78 12.242-12.627 16.862l-5.93-7.008c4.621-4.002 8.085-7.543 10.315-12.164 2.155-4.54 3.235-10.086 3.235-18.016H215V4.157h31.79v8.007h-11.006c0 7.47 1.308 13.166 3.77 17.706" style="stroke-width:3.68494"/></svg>