<svg xmlns="http://www.w3.org/2000/svg" width="88.163345mm" height="24.511mm" viewBox="0 0 88.163345 24.511"><g style="font-style:italic;font-weight:700;font-size:25.4px;font-family:SamsungGothicRoundOTF;fill:#00f;stroke-width:10.5833;stroke-linecap:square"><path d="m26.573 120.725 1.778-2.413c-1.32-.635-2.667-1.6-3.657-2.896-.991-1.244-1.651-2.768-1.651-4.572v-2.082H19.74v2.133c0 1.829-.635 3.455-1.651 4.852-1.016 1.422-2.363 2.54-3.785 3.352l1.981 2.312c1.143-.686 2.26-1.55 3.175-2.54.89-.94 1.6-1.981 2.032-2.972 1.042 1.93 2.642 3.505 5.08 4.826zm6.503-4.496h3.683v-2.667h-3.683v-5.334h-3.15v13.411h3.15zM19.74 132.282h13.335v-9.728H19.74Zm10.185-7.061v4.42h-7.061v-4.42zM49.738 121.131l1.778-2.463c-1.346-.686-2.692-1.6-3.632-2.82-.99-1.194-1.6-2.667-1.6-4.572v-2.514H42.93v2.565c0 1.727-.584 3.251-1.524 4.572-.94 1.346-2.337 2.515-3.886 3.53l1.955 2.363c1.22-.737 2.312-1.702 3.226-2.642.89-.94 1.575-1.93 1.956-2.845.406.813 1.092 1.702 1.981 2.54.89.89 1.981 1.677 3.099 2.286zm4.369.635h3.15v-13.538h-3.15v4.217h-4.445v2.794h4.445zm2.768 5.284c0-1.626-.66-2.998-1.752-3.988-1.118-.99-2.667-1.575-4.496-1.575-1.829 0-3.353.584-4.445 1.575-1.118.99-1.753 2.362-1.753 3.988 0 1.701.635 3.073 1.753 4.064 1.092.94 2.616 1.498 4.445 1.498 1.829 0 3.378-.559 4.496-1.498 1.092-.991 1.752-2.363 1.752-4.064zm-3.098 0c0 1.752-1.321 2.92-3.15 2.92s-3.099-1.168-3.099-2.92c0-1.728 1.27-2.896 3.099-2.896.914 0 1.676.305 2.26.813a2.87 2.87 0 0 1 .89 2.083zM69.855 121.335l1.803-2.388c-2.642-1.626-4.216-4.064-4.216-7.442v-2.413h-3.15v2.464c0 1.828-.483 3.352-1.27 4.648-.813 1.32-1.956 2.387-3.2 3.327l1.98 2.362c1.83-1.295 3.404-3.073 4.141-4.8.381.813.965 1.65 1.676 2.387a10.842 10.842 0 0 0 2.236 1.855zm7.213.685h3.048v-13.792h-3.048v5.182h-1.93v-4.928H72.09v12.573h3.048v-5.004h1.93zm2.87 5.334c0-1.549-.685-2.895-1.803-3.835-1.118-.94-2.718-1.499-4.547-1.499-1.854 0-3.454.56-4.572 1.499-1.143.94-1.828 2.286-1.828 3.835 0 1.626.685 2.998 1.828 3.937 1.118.915 2.718 1.448 4.572 1.448 1.83 0 3.43-.533 4.547-1.448 1.118-.94 1.803-2.311 1.803-3.937zm-3.175 0c0 1.651-1.32 2.718-3.175 2.718-1.93 0-3.276-1.067-3.276-2.718 0-1.625 1.346-2.717 3.276-2.717 1.855 0 3.175 1.092 3.175 2.717zM99.344 121.614h3.124v-13.386h-3.124v2.769h-4.547v-1.854H83.901v10.972h10.896v-1.65h4.547zm2.743 5.436c0-1.626-.66-2.998-1.752-3.988-1.118-.99-2.667-1.575-4.496-1.575-1.829 0-3.353.584-4.445 1.575-1.118.99-1.753 2.362-1.753 3.988 0 1.701.635 3.073 1.753 4.064 1.092.94 2.616 1.498 4.445 1.498 1.829 0 3.378-.559 4.496-1.498 1.092-.991 1.752-2.363 1.752-4.064zm-3.099 0c0 1.752-1.32 2.92-3.15 2.92-1.828 0-3.098-1.168-3.098-2.92 0-1.728 1.27-2.896 3.099-2.896.914 0 1.676.305 2.26.813a2.87 2.87 0 0 1 .89 2.083zm-7.34-15.266v5.664h-4.623v-5.664zm7.696 1.88v2.133h-4.547v-2.133z" style="fill:#003cdc" transform="translate(-14.305 -108.228)"/></g></svg>