<svg xmlns="http://www.w3.org/2000/svg" width="512" height="93.481" viewBox="0 0 135.46666 24.733516"><defs><clipPath id="a"><path d="M0 807.875h1293.45V0H0Z"/></clipPath><clipPath id="b"><path d="M0 807.875h1293.45V0H0Z"/></clipPath><clipPath id="c"><path d="M0 807.875h1293.45V0H0Z"/></clipPath></defs><g clip-path="url(#a)" style="clip-rule:nonzero" transform="translate(-156.23 -269.69) scale(.69827)"><path d="M314.805 386.727c-20.801-2.07-51.18 2.406-72.344 10.953l-1.277.55c.386-.019.664-.008.664-.008 3.52.098 3.308 2.293 3.308 2.293v1.332h-2.804v-.906c0-.644-.786-.691-.786-.691-.597 0-.738.414-.738.414-.336.617.235 1.16.235 1.16.292.313 1.757.988 1.757.988.473.184 1.223.66 1.223.66 1.437.856 1.309 2.497 1.309 2.497v1.07c-.168 2.672-3.852 2.59-3.852 2.59-3.844 0-3.758-2.524-3.758-2.524v-1.316h2.992v.906c0 .774.75.809.75.809.813.03.887-.758.887-.758.113-.77-.734-1.25-.734-1.25-.84-.441-2.23-1.188-2.23-1.188-.696-.445-.973-.855-.973-.855-.5-.625-.461-1.59-.461-1.59v-.844c0-1.156.312-1.488.312-1.488.004-.008.008-.012.016-.02-20.723 9.68-18.356 19.747.949 21.622 21.082 2.039 52.91-2.028 74.312-11.582-.05 0-.09.011-.14.011 0 0-3.63.293-3.711-2.632v-5.649s-.45-3.117 3.605-3.117c0 0 2.641-.082 3.348 1.492 0 0 .34.414.254 2.149h-2.82v-.895s-.004-.707-.743-.707c0 0-.757.027-.757.625v5.848s-.032.785.824.785c0 0 .707-.016.707-.848v-1.687h-.774v-1.567h3.625v3.317s-.008.691-.296 1.105c0 0-.223.32-.348.465l1.172-.59c18.972-9.723 16.59-19.012-2.703-20.93m-61.29 22.52-1.09-8.274h-.253l-1.082 8.274h-2.996l1.851-10.664h4.719l1.848 10.664zm15.11.016-.063-8.043h-.19l-1.462 8.039h-2.914l-1.476-8.04h-.215l-.032 8.044h-2.777l.23-10.672h4.692l.902 5.836h.215l.942-5.836h4.644l.297 10.672zm13.523-3.293v1.07c-.171 2.672-3.843 2.59-3.843 2.59-3.848 0-3.758-2.524-3.758-2.524v-1.316h2.984v.906c0 .774.75.809.75.809.82.03.887-.758.887-.758.113-.77-.734-1.25-.734-1.25l-2.239-1.188c-.687-.445-.96-.855-.96-.855-.497-.625-.462-1.59-.462-1.59v-.844c0-1.156.313-1.488.313-1.488.793-1.484 3.562-1.309 3.562-1.309 3.524.098 3.309 2.293 3.309 2.293l.004 1.332h-2.8v-.906c0-.644-.794-.691-.794-.691-.597 0-.734.414-.734.414-.336.617.234 1.16.234 1.16.29.313 1.75.988 1.75.988.477.184 1.239.66 1.239.66 1.43.856 1.293 2.497 1.293 2.497m10.992.714c0 2.938-3.711 2.895-3.711 2.895-4.278 0-3.961-3.031-3.961-3.031v-8.004h3.047l.015 8.07c0 .902.86.86.86.86.812 0 .77-.88.77-.88v-8.05h2.98zm12.832 2.579h-3.324l-2.954-6.524h-.125l.168 6.524h-2.785v-10.668h3.418l2.856 6.46h.12l-.195-6.46h2.82z" style="fill:#004ca1;fill-opacity:1;fill-rule:nonzero;stroke:none"/></g><path d="M428.28 44.291v5.082h16.072v2.856h-12.475v4.959h24.701v2.578h-24.701v13.246h30.896v-4.957h-24.7v-3.33h24.7V52.229H450.28v-2.856h16.082v-5.082z" style="fill:#004ca1;fill-opacity:1;fill-rule:nonzero;stroke:none;stroke-width:2.63914" transform="matrix(.26458 0 0 .26458 0 0)"/><path d="M363.527 394.652v10.125h2.489v-4.062h2.113v-2.067h-2.113v-3.996zM354.32 405.61h11.696v8.285H354.32zm9.301 2.019h-6.914v4.242h6.914zM382.863 394.652v10.125h-2.445v-4.062h-3.172v-2.063h3.133v-4z" style="fill:#004ca1;fill-opacity:1;fill-rule:nonzero;stroke:none" transform="translate(-156.23 -269.69) scale(.69827)"/><g clip-path="url(#b)" style="clip-rule:nonzero" transform="translate(-156.23 -269.69) scale(.69827)"><path d="M376.734 414.418c-3.578 0-6.476-2.098-6.476-4.688s2.898-4.687 6.476-4.687c3.586 0 6.489 2.098 6.489 4.687 0 2.59-2.903 4.688-6.489 4.688m4.04-4.688c0-1.44-1.813-2.617-4.04-2.617-2.222 0-4.023 1.176-4.023 2.617 0 1.446 1.8 2.622 4.023 2.622 2.227 0 4.04-1.176 4.04-2.622M357.656 395.02s-.32 5.48 4.11 7.746l-1.278 1.77s-3.246-2.153-3.984-4.497c-.734 2.344-3.984 4.496-3.984 4.496l-1.278-1.77c4.442-2.265 4.117-7.745 4.117-7.745zM373.043 400.04c-.738 2.343-3.711 4.308-3.711 4.308l-1.277-1.766c4.164-2.082 3.836-7.562 3.836-7.562h2.297s-.325 5.48 3.843 7.562l-1.277 1.766s-2.977-1.965-3.711-4.309" style="fill:#004ca1;fill-opacity:1;fill-rule:nonzero;stroke:none"/></g><path d="M413.145 394.652v12.48h2.484v-6.417h2.113v-2.067h-2.113v-3.996z" style="fill:#004ca1;fill-opacity:1;fill-rule:nonzero;stroke:none" transform="translate(-156.23 -269.69) scale(.69827)"/><g clip-path="url(#c)" style="clip-rule:nonzero" transform="translate(-156.23 -269.69) scale(.69827)"><path d="M407.273 395.02s-.328 5.48 4.114 7.746l-1.282 1.77s-3.25-2.153-3.988-4.497c-.734 2.344-3.98 4.496-3.98 4.496l-1.278-1.77c4.438-2.265 4.118-7.745 4.118-7.745z" style="fill:#004ca1;fill-opacity:1;fill-rule:nonzero;stroke:none"/></g><path d="M476.547 51.137v21.886h29.846V67.6h-23.538V51.137zM431.877 23.633v17.555h30.896V23.633Zm6.195 4.969h18.506v7.617h-18.506z" style="fill:#004ca1;fill-opacity:1;fill-rule:nonzero;stroke:none;stroke-width:2.63914" transform="matrix(.26458 0 0 .26458 0 0)"/></svg>